<svg xmlns="http://www.w3.org/2000/svg" width="1200" height="800" viewBox="0 0 1200 800" role="img" aria-label="Dwie osoby uczące się przy stole">
  <defs>
    <linearGradient id="bg" x1="0" y1="0" x2="1" y2="1">
      <stop offset="0" stop-color="#E6F0FF"/>
      <stop offset="1" stop-color="#FFFFFF"/>
    </linearGradient>
  </defs>
  <rect width="1200" height="800" fill="url(#bg)"/>

  <!-- Table -->
  <rect x="160" y="520" width="880" height="120" rx="28" fill="#0B1220" opacity="0.06"/>
  <rect x="180" y="500" width="840" height="120" rx="28" fill="#ffffff" stroke="#0052CC" stroke-opacity="0.15"/>

  <!-- Person A -->
  <circle cx="420" cy="320" r="62" fill="#F7D7C4"/>
  <path d="M340 520c10-90 60-140 160-140s150 50 160 140" fill="#93C5FD"/>
  <path d="M380 300c8-40 30-70 80-70s72 30 80 70" fill="#1E293B" opacity="0.85"/>

  <!-- Person B -->
  <circle cx="780" cy="330" r="58" fill="#F2C9A0"/>
  <path d="M700 520c10-80 55-120 160-120s150 40 160 120" fill="#A7F3D0"/>
  <path d="M740 312c6-36 26-62 70-62s64 26 70 62" fill="#1E293B" opacity="0.8"/>

  <!-- Notebook -->
  <rect x="520" y="470" width="160" height="90" rx="12" fill="#ffffff" stroke="#0052CC" stroke-opacity="0.2"/>
  <path d="M540 500h120" stroke="#0052CC" stroke-opacity="0.25" stroke-width="8" stroke-linecap="round"/>
  <path d="M540 530h80" stroke="#0052CC" stroke-opacity="0.18" stroke-width="8" stroke-linecap="round"/>

  <!-- Accent -->
  <circle cx="220" cy="220" r="95" fill="#0052CC" opacity="0.06"/>
  <circle cx="980" cy="210" r="120" fill="#0052CC" opacity="0.05"/>
</svg>
