<svg xmlns="http://www.w3.org/2000/svg" width="1200" height="800" viewBox="0 0 1200 800" role="img" aria-label="Ilustracja: zapisy na zajęcia">
  <defs>
    <linearGradient id="bg" x1="0" y1="0" x2="1" y2="1">
      <stop offset="0" stop-color="#FFFFFF"/>
      <stop offset="1" stop-color="#E6F0FF"/>
    </linearGradient>
  </defs>

  <rect width="1200" height="800" fill="url(#bg)"/>

  <!-- Accents -->
  <circle cx="210" cy="210" r="120" fill="#0052CC" opacity="0.06"/>
  <circle cx="1040" cy="240" r="150" fill="#0052CC" opacity="0.05"/>

  <!-- Form card -->
  <rect x="240" y="170" width="520" height="500" rx="30" fill="#ffffff" stroke="#0052CC" stroke-opacity="0.16"/>
  <rect x="240" y="170" width="520" height="88" rx="30" fill="#0052CC" opacity="0.12"/>
  <rect x="280" y="206" width="200" height="18" rx="9" fill="#0052CC" opacity="0.25"/>

  <!-- Inputs -->
  <g>
    <rect x="280" y="290" width="440" height="56" rx="16" fill="#F7F9FC" stroke="#0052CC" stroke-opacity="0.12"/>
    <rect x="300" y="312" width="260" height="12" rx="6" fill="#0052CC" opacity="0.16"/>

    <rect x="280" y="366" width="440" height="56" rx="16" fill="#F7F9FC" stroke="#0052CC" stroke-opacity="0.12"/>
    <rect x="300" y="388" width="220" height="12" rx="6" fill="#0052CC" opacity="0.12"/>

    <rect x="280" y="442" width="440" height="56" rx="16" fill="#F7F9FC" stroke="#0052CC" stroke-opacity="0.12"/>
    <rect x="300" y="464" width="300" height="12" rx="6" fill="#0052CC" opacity="0.10"/>

    <rect x="280" y="520" width="440" height="110" rx="18" fill="#F7F9FC" stroke="#0052CC" stroke-opacity="0.12"/>
    <rect x="300" y="544" width="320" height="12" rx="6" fill="#0052CC" opacity="0.10"/>
    <rect x="300" y="570" width="260" height="12" rx="6" fill="#0052CC" opacity="0.08"/>
  </g>

  <!-- Submit button -->
  <rect x="280" y="650" width="260" height="54" rx="27" fill="#0052CC"/>
  <rect x="312" y="672" width="190" height="12" rx="6" fill="#ffffff" opacity="0.85"/>

  <!-- Pen / check badge -->
  <g>
    <rect x="820" y="300" width="260" height="260" rx="34" fill="#ffffff" stroke="#0052CC" stroke-opacity="0.16"/>
    <circle cx="950" cy="380" r="58" fill="#0052CC" opacity="0.12"/>
    <path d="M918 382l18 18 38-44" fill="none" stroke="#0052CC" stroke-width="10" stroke-linecap="round" stroke-linejoin="round"/>

    <rect x="865" y="470" width="170" height="20" rx="10" fill="#0052CC" opacity="0.22"/>
    <rect x="865" y="505" width="140" height="20" rx="10" fill="#0052CC" opacity="0.16"/>
  </g>
</svg>
